<svg width="75" height="99" viewBox="0 0 75 99" fill="none" xmlns="http://www.w3.org/2000/svg">
<g clip-path="url(#clip0_5961_19063)">
<path d="M74.6201 19.47V29.5H12.7601C7.24006 29.5 2.76006 38.22 2.76006 48.97V19.47C-1.08994 1.06 7.24006 0 12.7601 0H64.6201C70.1401 0 74.6201 8.72 74.6201 19.47Z" fill="#DAE3FC"/>
<path d="M39.35 50.3409C39.35 50.9509 38.98 51.7909 38.11 51.7909H16.79C15.98 51.8009 15.51 51.1009 15.48 50.4609C15.45 49.7809 15.89 48.9609 16.74 48.9609H38.22C38.97 48.9609 39.35 49.8009 39.35 50.3409Z" fill="#0071F5"/>
<path d="M48.1904 35.8338C48.1204 36.6038 47.6204 37.1937 46.6804 37.1937H16.8004C15.9704 37.1837 15.5304 36.5138 15.4804 35.8438C15.4304 35.1938 15.8704 34.3438 16.7204 34.3438H47.0404C47.8304 34.3438 48.2404 35.2838 48.1904 35.8338Z" fill="#0071F5"/>
<path d="M48.1999 21.0866C48.2099 21.8066 47.8999 22.3766 47.0499 22.5966H16.9299C16.0399 22.5966 15.4999 21.9566 15.4799 21.2266C15.4499 20.5066 15.8999 19.7266 16.7999 19.7266H47.0399C47.7899 19.7366 48.1899 20.5766 48.1999 21.0866Z" fill="#0071F5"/>
<path d="M74.61 6.33C74.61 2.74 71.38 0 67.91 0L6.46 0.02C3.16 0.02 0.02 2.82 0.02 6.2L0 92.32C0 94.61 1.52 96.62 3.23 97.59C5.33 98.78 7.76 98.69 9.7 97.51C10.13 97.25 10.58 96.91 10.86 96.5L16.74 87.66C16.92 87.4 17.06 87.19 17.35 87.18C17.59 87.17 17.78 87.31 17.94 87.55L24.2 96.89C24.99 98.08 26.4 98.5 27.75 98.39C29.05 98.28 30.08 97.49 30.85 96.32L36.76 87.41C36.9 87.19 37.18 87.09 37.35 87.12C37.49 87.14 37.77 87.2 37.92 87.43L43.85 96.37C44.62 97.53 45.69 98.32 46.99 98.41C48.32 98.5 49.72 98.01 50.5 96.84L56.71 87.58C56.86 87.35 56.96 87.2 57.17 87.17C57.36 87.15 57.66 87.17 57.79 87.38L63.9 96.5C64.33 97.14 65.05 97.62 65.76 97.92C67.71 98.75 69.93 98.61 71.79 97.35C73.24 96.37 74.62 94.54 74.62 92.45V6.33H74.61ZM68.44 95.64C67.27 95.71 66.33 95.1 65.79 94.09L60.03 85.52C59.37 84.53 58.28 84.05 57.2 84.09C56.04 84.13 55.1 84.66 54.42 85.67L48.13 95.08C47.78 95.59 46.97 95.63 46.62 95.11L40.26 85.72C39.54 84.65 38.5 84.1 37.37 84.1C36.18 84.1 35.09 84.6 34.38 85.66L28.14 95.01C27.95 95.29 27.68 95.43 27.39 95.46C27.17 95.48 26.75 95.4 26.57 95.13L20.2 85.67C19.51 84.64 18.52 84.1 17.35 84.09C16.13 84.08 15.18 84.72 14.47 85.78L8.68 94.45C7.97 95.51 6.63 95.86 5.44 95.51C3.8 95.03 2.76 93.56 2.76 91.82V6.71C2.77 4.78 4.22 2.86 6.28 2.86L68.02 2.82C70.29 2.82 71.83 4.64 71.83 6.84V91.94C71.84 93.94 70.38 95.52 68.44 95.64Z" fill="#0071F5"/>
<path d="M39.35 50.3409C39.35 50.9509 38.98 51.7909 38.11 51.7909H16.79C15.98 51.8009 15.51 51.1009 15.48 50.4609C15.45 49.7809 15.89 48.9609 16.74 48.9609H38.22C38.97 48.9609 39.35 49.8009 39.35 50.3409Z" fill="#FEFFFF"/>
<path d="M48.1904 35.8338C48.1204 36.6038 47.6204 37.1937 46.6804 37.1937H16.8004C15.9704 37.1837 15.5304 36.5138 15.4804 35.8438C15.4304 35.1938 15.8704 34.3438 16.7204 34.3438H47.0404C47.8304 34.3438 48.2404 35.2838 48.1904 35.8338Z" fill="#FEFFFF"/>
<path d="M15.4799 21.2266C15.4499 20.5066 15.8999 19.7266 16.7999 19.7266H47.0399C47.7899 19.7366 48.1899 20.5766 48.1999 21.0866C48.2099 21.8066 47.8999 22.3766 47.0499 22.5966H16.9299C16.0399 22.5966 15.4999 21.9566 15.4799 21.2266Z" fill="#FEFFFF"/>
<path d="M48.1999 21.0866C48.2099 21.8066 47.8999 22.3766 47.0499 22.5966H16.9299C16.0399 22.5966 15.4999 21.9566 15.4799 21.2266C15.4499 20.5066 15.8999 19.7266 16.7999 19.7266H47.0399C47.7899 19.7366 48.1899 20.5766 48.1999 21.0866Z" fill="#0071F5"/>
<path d="M48.1904 35.8338C48.1204 36.6038 47.6204 37.1937 46.6804 37.1937H16.8004C15.9704 37.1837 15.5304 36.5138 15.4804 35.8438C15.4304 35.1938 15.8704 34.3438 16.7204 34.3438H47.0404C47.8304 34.3438 48.2404 35.2838 48.1904 35.8338Z" fill="#0071F5"/>
<path d="M39.35 50.3409C39.35 50.9509 38.98 51.7909 38.11 51.7909H16.79C15.98 51.8009 15.51 51.1009 15.48 50.4609C15.45 49.7809 15.89 48.9609 16.74 48.9609H38.22C38.97 48.9609 39.35 49.8009 39.35 50.3409Z" fill="#0071F5"/>
</g>
<defs>
<clipPath id="clip0_5961_19063">
<rect width="74.62" height="98.44" fill="white"/>
</clipPath>
</defs>
</svg>
